<?xml version="1.0" encoding="utf-8"?>
<!-- Generator: Adobe Illustrator 16.0.0, SVG Export Plug-In . SVG Version: 6.00 Build 0)  -->
<!DOCTYPE svg PUBLIC "-//W3C//DTD SVG 1.1//EN" "http://www.w3.org/Graphics/SVG/1.1/DTD/svg11.dtd">
<svg version="1.1" id="Layer_1" xmlns="http://www.w3.org/2000/svg" xmlns:xlink="http://www.w3.org/1999/xlink" x="0px" y="0px"
	 width="160px" height="66px" viewBox="0 0 160 66" enable-background="new 0 0 160 66" xml:space="preserve">
<g>
	<g>
		<path fill="#383535" d="M91.4,66c-1.5,0-2.7-0.2-3.6-0.7c-1.4-0.7-2.2-2.1-2.2-3.8c0-4.1-0.2-4.1-2.2-4.1c-0.8,0-3,0-5.8,0
			c-5.6,0-13.8-0.1-20.2-0.1c-6.9,0-8.8,0-9.3,0.1c-0.7,0-1.2,0.2-1.4,0.4c-0.1,0.2-0.1,0.5-0.1,0.8l0,0.4c0.2,1.3,0.4,3.4-0.8,4.9
			c-0.7,0.8-1.8,1.2-3.1,1.2c-3,0-8.3-0.1-9.3-0.2c-0.1,0-0.2,0-0.3,0c-0.6,0-3.4-0.2-3.5-4.7c-0.1-2.7-0.4-3.5-2.2-3.5
			c-2.2,0-2.4,0.7-2.6,2.7l0,0.5c-0.1,1.8-0.3,5-5.1,4.9l-1,0c-4.4-0.2-10.5-0.4-10.5-4.4c0-0.9,0.2-1.7,0.3-2.4
			c0.4-1.8,0.5-2.4-1.6-3.4c-5.7-2.6-7.7-7.5-6.5-15.8c0.4-2.5,0.9-4.9,1.5-7.5C2.4,29,3,26.6,3.4,24.1c0.2-1.4,0.4-2.9,0.6-4.5
			c0.3-3.1,0.7-6.3,1.7-9.1c1.2-3.1,2.8-4.6,4.8-4.6c3,0,5.6,3.4,7.8,6.5c0.8,1.1,1.5,2.1,2.1,2.5c0.9,0.8,3.2,1.8,6.7,1.8
			c5.6,0,15.1-2.5,28.8-14.5C56,2.1,58.8,0,62.3,0c1.6,0,3.1,0.4,4.4,1.3l0.7,0.5c22.1,13.8,46.3,23.8,69.8,29
			c2.7,0.6,5.3,1.2,9.9,2.4c4.5,1.1,10.7,2.7,12.1,7.3c1.4,4.4,0.3,7.2-0.8,8.8c-1.5,2.1-4.1,3.3-7.1,3.3l-0.7,0
			c-0.9,0-1.5,0.2-1.8,0.5c-0.4,0.4-0.3,1.3-0.3,1.8c0,0.2,0,0.3,0,0.4c0,0,0.1,0.2,0.1,0.3c0.2,0.7,0.6,2.1-0.2,3.5
			c-0.7,1.1-2.1,1.9-4.2,2.3c-1.9,0.4-3.4,0.6-4.7,0.6c-1.8,0-3-0.6-3.6-1.8c-0.2-0.5-0.4-1.1-0.5-1.7c-0.4-2.2-0.9-2.6-2.6-2.4
			l-0.6,0.1c-1.8,0.2-4.2,0.5-4.9,1.3c-0.1,0.1-0.2,0.4-0.2,0.8c0.5,4.4-2.3,5.3-4.9,5.8c-1.2,0.2-2.4,0.4-3.7,0.4
			c-4.6,0-5.2-3-5.3-4.3c-0.1-2-0.9-2.3-3.3-2.3h-0.3c-0.7,0-1.5,0-2.3,0c-1.5,0-3.1-0.1-3.8,0l-0.3,0c-1.2,0.2-2.1,0.2-2,2.6
			c0.1,1.7-0.3,3-1.2,3.9c-1.3,1.3-3.1,1.4-4.8,1.4l-1.6,0c-0.2,0-0.5,0-0.9,0C92.6,65.9,92,66,91.4,66z M57.4,54.3
			c6.4,0,14.7,0,20.2,0.1c2.8,0,5,0,5.8,0c5.3,0,5.3,3.5,5.3,7.2c0,0.7,0.3,0.9,0.5,1c0.4,0.2,1.2,0.4,2.2,0.4c0.5,0,1.1,0,1.5-0.1
			c0.4,0,0.8,0,1.1,0l1.6,0c1,0,2.1-0.1,2.5-0.5c0.3-0.3,0.4-1.1,0.3-1.6c-0.2-5.2,3.4-5.7,4.7-5.8l0.2,0c0.9-0.1,2.6-0.1,4.3-0.1
			c0.8,0,1.6,0,2.2,0h0.3c1.8,0,6.1,0,6.4,5.2c0,0.6,0.1,1.4,2.3,1.4c1,0,2.1-0.2,3.1-0.4c2.5-0.5,2.7-0.7,2.5-2.4
			c-0.1-1.2,0.1-2.2,0.8-3.1c1.5-1.8,4.4-2.2,7-2.5l0.6-0.1c4.9-0.5,5.6,3.2,5.9,4.9c0.1,0.3,0.2,0.8,0.2,0.9c0,0,0.2,0.1,0.9,0.1
			c1,0,2.6-0.3,4.1-0.6c1.8-0.4,2.2-0.9,2.2-0.9c0.1-0.2,0-0.6-0.1-1c-0.1-0.4-0.2-0.8-0.2-1.2l0-0.3c0-0.9-0.1-2.7,1.1-4.1
			c0.9-0.9,2.2-1.4,4-1.4l0.7,0c2,0,3.7-0.7,4.6-2c1-1.4,1.2-3.5,0.4-6c-0.9-2.8-5.2-4.1-10-5.3c-4.5-1.2-7.2-1.8-9.8-2.4
			c-23.9-5.3-48.4-15.4-70.8-29.4l-0.7-0.4c-0.9-0.5-1.8-0.8-2.8-0.8c-2.4,0-4.5,1.5-4.5,1.6C43.5,17.1,33.2,19.8,27.1,19.8
			c0,0,0,0,0,0c-5.4,0-8.1-2-8.7-2.6c-0.7-0.7-1.5-1.7-2.4-2.9C14.5,12.2,12,9,10.5,9c-0.6,0-1.3,1-2,2.6C7.7,14,7.3,17,7,20
			c-0.2,1.6-0.3,3.2-0.6,4.6c-0.4,2.6-1,5-1.6,7.4c-0.6,2.5-1.2,4.9-1.5,7.2c-1.2,8.5,1.6,11.1,4.7,12.5c4.4,2,3.8,4.9,3.4,6.8
			c-0.1,0.6-0.3,1.2-0.3,1.7c0.3,0.7,2.9,1.1,7.6,1.3l1.3,0.1c1.5,0,1.5-0.2,1.6-2l0-0.5c0.1-1.8,0.5-5.5,5.6-5.5
			c5.1,0,5.2,4.3,5.3,6.4c0,1.5,0.4,1.8,0.4,1.8l0.2,0l0.1,0c0,0,6.1,0.2,9.3,0.2c0.4,0,0.7-0.1,0.8-0.2c0.4-0.4,0.2-1.8,0.1-2.5
			l0-0.4c-0.2-1.5,0.3-2.5,0.8-3.1c0.7-0.9,1.9-1.4,3.5-1.5C48.4,54.3,49.9,54.3,57.4,54.3z"/>
	</g>
	<g>
		<path fill="#383535" d="M79.5,45.1c-6.7,0-14-1.6-21.6-5.8c-1.6-0.7-17-7.8-19.6-13.2c-0.4-0.8,0-1.7,0.7-2c0.8-0.4,1.7,0,2,0.7
			c1.6,3.3,12,9,18.2,11.8c28.6,15.8,51.2-7,52.2-7.9c0.6-0.6,1.6-0.6,2.2,0c0.6,0.6,0.6,1.6,0,2.2C113.5,30.9,99.4,45.1,79.5,45.1z
			"/>
	</g>
	<g>
		<path fill="#383535" d="M94.9,42.1l-3-0.3c1-8.8,1-17.3,0.1-19.8c-3.1,1.3-13,6.1-27.5,19.5l-2.1-2.2
			c18.2-16.9,29.2-20.5,29.7-20.6l0.7-0.2l0.6,0.5C96.6,21.1,95.7,34.4,94.9,42.1z"/>
	</g>
	<g>
		<path fill="#383535" d="M64.8,41.1l-2.7-1.5c4.4-7.8,11-21.8,9.7-26.2c-0.1-0.3-0.2-0.4-0.3-0.5c-2.4,0.3-13.2,2-31,13.8l-1.7-2.6
			C59.8,10.1,71.5,9.7,72,9.7l0.4,0l0.3,0.2c0.7,0.4,1.6,1.1,2,2.6C76.8,19.5,66,38.9,64.8,41.1z"/>
	</g>
</g>
</svg>
