<?xml version="1.0" encoding="utf-8"?>
<!-- Generator: Adobe Illustrator 16.0.0, SVG Export Plug-In . SVG Version: 6.00 Build 0)  -->
<!DOCTYPE svg PUBLIC "-//W3C//DTD SVG 1.1//EN" "http://www.w3.org/Graphics/SVG/1.1/DTD/svg11.dtd">
<svg version="1.1" id="Layer_1" xmlns="http://www.w3.org/2000/svg" xmlns:xlink="http://www.w3.org/1999/xlink" x="0px" y="0px"
	 width="160px" height="53.4px" viewBox="0 0 160 53.4" enable-background="new 0 0 160 53.4" xml:space="preserve">
<g>
	<g>
		<path fill="#383535" d="M106.2,53.4c-10.9,0-22.6-2-34.8-5.9c0.1,0-7.9-1.4-13-1.4c-1.1,0-2,0.1-2.6,0.2c-0.3,0-10.1,1.1-20.8,1.1
			c-12.2,0-20.7-1.4-25.3-4.2C8.2,42.6-4.3,37,1.6,19.2C3.3,13.8,8.2,7.4,21.8,7.4c5.4,0,11.9,1,19.3,3c0.1,0,18.1,3.8,25.2,3.6
			c0.9,0,12.8,0.6,22.7-5.4C96.5,4.1,104.3,0,116.4,0c7.1,0,14.9,1.4,23.9,4.4c0.8,0.2,22.1,6.3,19.5,21.1
			c-0.1,0.7-3.5,18.1-39.1,26.5C120.6,52,115.5,53.4,106.2,53.4z M58.5,43.3c5.3,0,13.3,1.4,13.6,1.5c12.1,3.9,23.5,5.8,34.1,5.8
			c8.8,0,13.7-1.4,13.7-1.4c33.9-8,37-24.1,37-24.2c2.2-12.2-17.3-17.9-17.5-17.9c-8.7-2.9-16.3-4.2-23.1-4.2
			c-11.4,0-18.8,3.9-26,8.2c-8.8,5.3-18.8,5.8-22.8,5.8c-0.9,0-1.4,0-1.4,0c-0.1,0-0.4,0-0.6,0c-7.8,0-24.5-3.5-25.2-3.7
			C19.8,7.6,7.5,10,4.2,20c-5.4,16.4,6.2,20.5,6.7,20.7l0.3,0.1c4,2.5,12.3,3.8,23.9,3.8c10.5,0,20.2-1.1,20.3-1.1
			C56,43.4,57.1,43.3,58.5,43.3z"/>
	</g>
	<g>
		<path fill="#383535" d="M78.2,41.8c0,0,14.4-20.2,12.9-26.6c0,0-2.4,0.4-8.5,5.1c-10.2,7.8-14.1,8.5-51.2,4.4c0,0-27.1-4.9-24.4,2
			c0,0-0.2,3.2,33.6,5.9c0,0,24.1,3.2,26.8,6.3C67.5,38.8,70.2,43.7,78.2,41.8z"/>
	</g>
	<g>
		<circle fill="#383535" cx="98.7" cy="14" r="4.6"/>
	</g>
	<g>
		<circle fill="#383535" cx="117.7" cy="11.1" r="4.6"/>
	</g>
	<g>
		<circle fill="#383535" cx="139.6" cy="14.7" r="4.6"/>
	</g>
	<g>
		<circle fill="#383535" cx="144.3" cy="29.3" r="4.6"/>
	</g>
	<g>
		<circle fill="#383535" cx="129.9" cy="38.4" r="4.6"/>
	</g>
	<g>
		<circle fill="#383535" cx="111.6" cy="43.5" r="4.6"/>
	</g>
	<g>
		<circle fill="#383535" cx="102.8" cy="29.8" r="4.6"/>
	</g>
	<g>
		<circle fill="#383535" cx="91.4" cy="42.3" r="4.6"/>
	</g>
	<g>
		<circle fill="#383535" cx="34.1" cy="18.9" r="4.6"/>
	</g>
	<g>
		<circle fill="#383535" cx="17.8" cy="17.9" r="4.6"/>
	</g>
	<g>
		<circle fill="#383535" cx="14.1" cy="35.7" r="4.6"/>
	</g>
	<g>
		<circle fill="#383535" cx="33.8" cy="37.9" r="4.6"/>
	</g>
</g>
</svg>
